<svg width="64" height="64" viewBox="0 0 64 64" fill="none" xmlns="http://www.w3.org/2000/svg">
  <circle cx="32" cy="32" r="30" fill="#9C27B0" />
  <path d="M24 20L40 20C44.4183 20 48 23.5817 48 28L48 44C48 45.1046 47.1046 46 46 46C44.8954 46 44 45.1046 44 44L44 28C44 25.7909 42.2091 24 40 24L24 24C21.7909 24 20 25.7909 20 28L20 44C20 45.1046 19.1046 46 18 46C16.8954 46 16 45.1046 16 44L16 28C16 23.5817 19.5817 20 24 20Z" fill="white"/>
  <path d="M32 28C34.7614 28 37 30.2386 37 33C37 35.7614 34.7614 38 32 38C29.2386 38 27 35.7614 27 33C27 30.2386 29.2386 28 32 28Z" fill="white"/>
  <path d="M22 36C22 34.8954 22.8954 34 24 34C25.1046 34 26 34.8954 26 36L26 44C26 45.1046 25.1046 46 24 46C22.8954 46 22 45.1046 22 44L22 36Z" fill="white"/>
  <path d="M38 36C38 34.8954 38.8954 34 40 34C41.1046 34 42 34.8954 42 36L42 44C42 45.1046 41.1046 46 40 46C38.8954 46 38 45.1046 38 44L38 36Z" fill="white"/>
</svg>